<svg width="45.601" height="65.701" viewBox="0 0 45.601 65.701" xmlns="http://www.w3.org/2000/svg"><g id="svgGroup" stroke-linecap="round" fill-rule="evenodd" font-size="9pt" stroke="#000" stroke-width="0.5mm" fill="#ffffff" style="stroke:#000;stroke-width:0.5mm;fill:#ffffff"><path d="M 4.937 65.442 A 7.796 7.796 0 0 0 6.9 65.701 A 16.938 16.938 0 0 0 7.58 65.687 Q 9.03 65.629 10.269 65.318 A 9.077 9.077 0 0 0 13.4 63.901 A 9.43 9.43 0 0 0 14.04 63.399 Q 14.691 62.838 15.115 62.242 A 3.98 3.98 0 0 0 15.9 59.901 A 3.735 3.735 0 0 0 15.312 57.91 A 5.588 5.588 0 0 0 14.5 56.901 Q 12.5 55.001 11.85 52.351 Q 11.485 50.86 11.325 49.101 A 32.08 32.08 0 0 1 11.2 46.201 Q 11.2 42.201 11.65 37.351 Q 12.1 32.501 12.7 27.501 Q 13.8 19.101 14.1 12.501 Q 16.4 11.901 18.7 11.551 A 32.626 32.626 0 0 1 18.844 11.529 A 29.811 29.811 0 0 1 23.2 11.201 A 24.482 24.482 0 0 1 23.505 11.203 Q 29.297 11.275 33 14.101 A 9.243 9.243 0 0 1 36.22 18.452 A 10.98 10.98 0 0 1 36.8 22.101 A 13.456 13.456 0 0 1 36.787 22.706 A 10.157 10.157 0 0 1 33.35 30.101 A 11.659 11.659 0 0 1 28.384 32.728 A 15.934 15.934 0 0 1 24.4 33.201 A 19.426 19.426 0 0 1 24.312 33.201 Q 23.65 33.198 23.056 33.149 A 11.838 11.838 0 0 1 21.9 33.001 A 236.833 236.833 0 0 0 21.412 32.913 Q 20.905 32.822 20.531 32.757 A 60.538 60.538 0 0 0 20.2 32.701 Q 19.6 32.501 19 32.401 A 12.544 12.544 0 0 0 18.746 32.361 Q 18.483 32.323 18.293 32.309 A 2.668 2.668 0 0 0 18.1 32.301 A 2.157 2.157 0 0 0 17.952 32.306 Q 16.878 32.38 16.55 33.551 A 9.031 9.031 0 0 0 16.311 34.692 A 11.221 11.221 0 0 0 16.2 36.301 A 12.587 12.587 0 0 0 16.268 37.642 Q 16.367 38.567 16.612 39.33 A 5.422 5.422 0 0 0 17.5 41.051 A 3.156 3.156 0 0 0 17.945 41.509 Q 19.356 42.701 22.5 42.701 Q 26.4 42.701 30.45 40.951 A 24.253 24.253 0 0 0 32.193 40.113 A 26.495 26.495 0 0 0 37.95 35.951 Q 41.4 32.701 43.5 28.301 Q 45.6 23.901 45.6 18.701 A 23.276 23.276 0 0 0 45.54 17.009 A 16.773 16.773 0 0 0 39.75 5.101 A 18.821 18.821 0 0 0 39.043 4.514 Q 35.557 1.762 30.805 0.688 A 29.944 29.944 0 0 0 24.2 0.001 Q 19.3 0.001 14.55 1.251 Q 9.8 2.501 6.3 4.401 A 27.186 27.186 0 0 0 6 4.562 Q 2.643 6.388 1.35 8.351 A 7.934 7.934 0 0 0 0.232 11.079 A 11.063 11.063 0 0 0 0 13.401 A 10.842 10.842 0 0 0 0.02 14.079 Q 0.185 16.701 1.7 16.701 A 3.1 3.1 0 0 0 2.274 16.646 A 3.886 3.886 0 0 0 2.95 16.451 A 8.743 8.743 0 0 0 3.529 16.203 A 10.895 10.895 0 0 0 4.3 15.801 Q 4.6 18.001 4.7 20.301 Q 4.8 22.601 4.8 24.601 Q 4.8 29.701 4.35 34.701 A 165.172 165.172 0 0 1 4.094 37.322 A 142.821 142.821 0 0 1 3.2 44.201 Q 2.5 48.601 2.05 52.451 Q 1.6 56.301 1.6 58.801 Q 1.6 60.908 1.97 62.276 A 5.365 5.365 0 0 0 2.4 63.401 A 6.053 6.053 0 0 0 2.506 63.59 Q 3.281 64.927 4.45 65.301 A 9.079 9.079 0 0 0 4.937 65.442 Z" vector-effect="non-scaling-stroke"/></g></svg>